<svg preserveAspectRatio="xMidYMid meet"  overflow="visible" style="display: block;" viewBox="0 0 200 200" fill="none" xmlns="http://www.w3.org/2000/svg">
<path id="Vector" d="M189.832 55.2178C183.304 42.2041 173.387 30.4458 161.21 21.24C145.811 9.60722 126.981 2.2007 108.193 0.443227C104.26 0.0666262 100.284 -0.0589075 96.351 0.0247816C74.006 0.65245 51.9539 9.64906 34.2536 25.4245C16.5952 41.1162 4.83685 61.8711 1.23821 83.8395C-5.62431 125.517 16.5952 169.83 54.088 189.246C68.1059 196.485 83.714 200 99.322 200C125.559 200 151.795 190.125 170.625 171.546C200.67 141.878 208.746 92.9616 189.832 55.2178ZM94.0078 153.469V187.237C81.4125 182.383 74.2989 169.035 68.7755 156.147C77.1025 154.557 85.5551 153.636 94.0078 153.511V153.469ZM52.9582 147.401C45.5935 148.991 38.7728 152.381 31.9103 156.105C20.1101 140.957 13.2476 123.466 12.4107 106.394H47.0999C48.146 122.169 50.029 135.308 52.9582 147.401ZM94.0078 13.164V46.9325C89.2375 46.8907 85.0112 46.6815 81.1615 46.3049C78.3579 46.0538 71.8719 45.1332 68.6499 44.4219C74.3826 31.7011 81.0778 18.018 94.0078 13.164ZM12.3689 94.0077C12.871 80.9103 17.3484 66.5995 24.7967 54.4227C27.14 50.573 30.5294 45.8864 32.0358 44.5474C33.1238 45.0495 35.216 46.0956 36.848 46.9325C39.4005 48.2297 41.9949 49.5269 43.041 49.9454C45.9283 51.0752 49.3595 52.3723 52.9163 53.1256C49.4432 66.5158 47.4347 80.2409 47.0162 94.0496H12.3689V94.0077ZM40.4048 35.5508C48.8155 27.6422 58.8583 21.4911 69.4868 17.6832C64.2562 24.7131 59.9881 32.7054 56.6823 41.6183C53.2511 40.9488 44.4219 37.5175 40.4048 35.509V35.5508ZM56.6405 158.699C59.8207 167.361 64.1307 175.437 69.5705 182.76C59.1093 179.036 49.0666 172.885 40.5303 164.976C44.924 162.717 53.4185 159.285 56.5986 158.699H56.6405ZM94.0078 105.766V141.25L64.7584 144.054C62.1221 133.342 59.3186 119.826 59.3604 105.766H94.0078ZM94.0078 59.1512V94.0077H59.3604C59.4441 82.5004 61.2016 70.1563 64.7584 56.3476L94.0078 59.1512ZM187.991 106.394C186.861 124.931 179.664 142.757 168.073 155.938C160.499 151.586 153.846 148.824 147.485 147.401C150.54 135.183 152.423 122.044 153.385 106.394H188.033H187.991ZM143.677 41.5765C140.121 32.1614 135.936 24.2528 130.915 17.5577C141.209 21.1563 151.293 27.3493 159.997 35.5508C156.021 37.6012 147.192 40.9488 143.677 41.5765ZM106.394 94.0077V59.1512L135.643 56.3476C138.238 66.8924 140.999 80.2408 141.041 94.0077H106.394ZM159.704 164.934C151.879 172.55 141.752 178.785 130.957 182.676C136.145 175.73 140.372 167.78 143.677 158.95C148.95 159.746 153.929 162.172 158.783 164.474C159.118 164.641 159.411 164.767 159.746 164.934H159.704ZM106.394 141.292V106.394H141.041C141.041 119.156 138.53 131.835 135.643 144.723L106.394 141.292ZM106.394 153.469C110.327 153.469 114.47 153.72 118.989 154.18C122.337 154.515 128.279 155.059 131.877 155.77C125.642 169.83 118.78 182.593 106.394 187.279V153.469ZM153.385 94.0077C152.799 79.4458 150.833 65.6789 147.485 53C154.599 51.4517 161.671 48.5645 168.575 44.4219C180.501 59.193 187.321 76.6422 188.033 94.0077H153.385ZM133.76 46.0956H133.844L133.928 46.3468L133.76 46.0956ZM106.394 46.9325V13.1222C118.738 17.8087 125.6 30.4876 131.835 44.5474C128.53 45.3425 122.378 45.9283 118.612 46.263C114.428 46.6815 110.369 46.8907 106.436 46.9325H106.394Z" fill="var(--fill-0, #F7F7F7)"/>
</svg>
