<svg preserveAspectRatio="xMidYMid meet"  overflow="visible" style="display: block;" viewBox="0 0 60 20" fill="none" xmlns="http://www.w3.org/2000/svg">
<g id="Group 39803">
<path id="Vector" d="M30.255 0H59.5751C59.83 0 60 0.165978 60 0.414944V19.5851C60 19.834 59.83 20 59.5751 20H30.4249C30.17 20 30 19.834 30 19.5851V0.414944C30 0.248967 30.17 0.0829889 30.34 0H30.255ZM58.2153 0.912554H31.6147L44.8725 12.9459L58.2153 0.912554ZM30.8499 1.49364V18.5064L41.3881 11.0374L30.8499 1.49364ZM59.0651 18.589V1.5763L48.5269 11.0374L59.0651 18.589ZM58.0453 19.0874L47.847 11.7011H47.762L45.3824 13.8593C45.1275 14.0253 44.9575 14.1083 44.7026 13.8593C43.8527 13.1124 43.0878 12.3653 42.238 11.6184L31.9547 19.004H58.0453V19.0874Z" fill="var(--fill-0, #239083)"/>
<g id="Group">
<path id="Vector_2" d="M9.86309 19.9223C8.0425 19.9223 6.22192 19.4478 4.63879 18.4188L0.522655 19.4477L1.63081 15.4898C-0.110625 12.7985 -0.506368 9.39481 0.680977 6.38687C1.86832 3.29977 4.40129 1.08324 7.56754 0.291677C11.2087 -0.579042 14.8499 0.529301 17.3829 3.22062C19.9159 5.99109 20.6283 9.71159 19.441 13.2736C18.412 16.1233 16.1956 18.3398 13.346 19.3688C12.2378 19.7646 11.1296 19.9223 10.0214 19.9223H9.86309ZM4.79707 17.5476H4.95539C7.33008 19.1307 10.338 19.5271 13.0293 18.5773C15.7207 17.6274 17.6995 15.648 18.6494 12.9567C19.7576 9.71128 19.0452 6.22825 16.7497 3.69524C14.4542 1.16224 11.0504 0.133674 7.72586 1.00439C4.79708 1.7168 2.50154 3.77456 1.39336 6.62418C0.285167 9.47381 0.680939 12.6399 2.42238 15.1729V15.3314C2.50153 15.3314 1.71 18.3392 1.71 18.3392L4.79707 17.5476Z" fill="var(--fill-0, #239083)"/>
<path id="Vector_3" d="M5.66785 4.64502C5.82616 4.64502 6.53856 4.64502 6.69687 4.64502C6.85518 4.64502 6.85517 4.80349 6.93433 4.80349C7.1718 5.04096 7.8842 6.86125 7.96335 7.25703C8.04251 7.65281 7.96337 7.65343 7.88422 7.8909C7.80506 8.12837 7.17181 8.6823 7.09265 8.91977C7.0135 9.15724 7.33012 9.63234 7.48843 9.8698C8.28 11.0571 9.46735 12.007 10.813 12.6403C12.1587 13.2735 11.3671 12.9566 11.6046 12.7191L12.6336 11.3733C12.8711 11.215 13.1877 11.3733 13.4252 11.3733C14.2167 11.6899 14.9291 12.086 15.6415 12.4818C15.7998 12.6401 15.7998 13.0354 15.7998 13.1938C15.6415 15.1727 13.4252 15.6476 11.7629 15.1727C9.30905 14.4603 7.33011 12.9564 5.74699 10.9775C4.16386 8.99862 3.68892 8.04921 4.16386 6.30777C4.6388 4.56633 4.95541 4.64533 5.58866 4.56618L5.66785 4.64502Z" fill="var(--fill-0, #239083)"/>
</g>
</g>
</svg>
