<svg preserveAspectRatio="xMidYMid meet"  overflow="visible" style="display: block;" viewBox="0 0 50 24.9075" fill="none" xmlns="http://www.w3.org/2000/svg">
<g id="Group">
<path id="Vector" d="M8.39692 24.9073H3.83861V13.5313H0V9.10096H3.83861V5.86753C3.83861 4.01144 4.37842 2.57458 5.45802 1.49685C6.47765 0.538866 7.85714 1.98217e-10 9.53652 1.98217e-10C11.2159 1.98217e-10 11.6358 -0.000116949 12.9553 0.179505V4.13154H10.5562C9.11668 4.13154 8.39692 4.78969 8.39692 6.04704V9.10096H12.7754L12.2355 13.5313H8.39692V24.9073Z" fill="var(--fill-0, white)"/>
<path id="Vector_2" d="M25.409 12.6334C25.409 6.76572 25.409 4.49074 27.4482 2.39515C29.4875 0.299562 31.7667 0.359202 37.7045 0.359202C43.6423 0.359202 45.8615 0.359436 47.9607 2.39515C50 4.43087 50 6.76572 50 12.6334C50 18.501 50 20.7766 47.9607 22.8722C45.9215 24.9079 43.6423 24.9075 37.7045 24.9075C31.7667 24.9075 29.5475 24.9079 27.4482 22.8722C25.409 20.8365 25.409 18.501 25.409 12.6334ZM47.7808 12.6334C47.7808 7.06509 47.7808 5.38897 46.3413 4.01187C44.9018 2.57489 43.2825 2.57466 37.7045 2.57466C32.1265 2.57466 30.4471 2.57489 29.0677 4.01187C27.6282 5.44884 27.6282 7.06509 27.6282 12.6334C27.6282 18.2017 27.6282 19.8784 29.0677 21.2555C30.5071 22.6924 32.1265 22.6927 37.7045 22.6927C43.2825 22.6927 44.9618 22.6924 46.3413 21.2555C47.7808 19.8185 47.7808 18.2017 47.7808 12.6334ZM37.7045 6.3466C41.1832 6.3466 44.0022 9.16068 44.0022 12.6334C44.0022 16.1061 41.1832 18.9201 37.7045 18.9201C34.2258 18.9201 31.4068 16.1061 31.4068 12.6334C31.4068 9.16068 34.2258 6.3466 37.7045 6.3466ZM37.7045 16.7053C39.9837 16.7053 41.783 14.9086 41.783 12.6334C41.783 10.3582 39.9837 8.56206 37.7045 8.56206C35.4253 8.56206 33.626 10.3582 33.626 12.6334C33.626 14.9086 35.4253 16.7053 37.7045 16.7053ZM45.6816 6.10746C45.6816 6.88582 45.0218 7.60431 44.1821 7.60431C43.3424 7.60431 42.6827 6.94569 42.6827 6.10746C42.6827 5.26922 43.3424 4.61061 44.1821 4.61061C45.0218 4.61061 45.6816 5.26922 45.6816 6.10746Z" fill="var(--fill-0, white)"/>
</g>
</svg>
