<svg preserveAspectRatio="xMidYMid meet"  overflow="visible" style="display: block;" viewBox="0 0 80.5001 12.8197" fill="none" xmlns="http://www.w3.org/2000/svg">
<g id="Group">
<path id="Vector" d="M74.9263 1.22407C75.2481 1.86776 75.57 2.5919 75.8918 3.23559C76.2137 3.87928 76.1332 3.71828 76.2941 3.95966C76.455 3.95966 76.6964 3.95974 76.9378 4.0402C77.8229 4.20112 78.708 4.28158 79.593 4.4425C80.4781 4.60342 80.1562 4.44227 80.3172 4.60319C80.4781 4.76411 80.3976 4.76434 80.4781 4.84481C80.5586 4.92527 80.3976 5.08611 80.3172 5.16657C79.9953 5.56887 79.5126 5.89064 79.1103 6.29294C78.6275 6.69525 78.2252 7.17817 77.7424 7.66093C77.2596 8.1437 77.5815 7.82162 77.5815 7.82162C77.5815 7.82162 77.5815 7.8217 77.5815 7.90216C77.5815 7.90216 77.5815 8.06332 77.5815 8.14378C77.7424 9.10931 77.9838 10.0745 78.0643 11.0401C78.1447 12.0056 78.2252 11.6838 78.0643 11.9252C77.9033 12.1666 77.9838 12.0863 77.9033 12.0863C77.8229 12.0863 77.7424 12.0863 77.5815 12.0863C77.4206 12.0863 77.0987 11.845 76.9378 11.7645C76.3746 11.4427 75.7309 11.1207 75.1677 10.7988C74.6045 10.477 74.524 10.4769 74.2022 10.316C73.9608 10.4769 73.7194 10.5574 73.478 10.7183C72.5929 11.2011 71.7883 11.6035 70.9032 12.0863C70.0182 12.569 70.6619 12.1667 70.5009 12.0863C70.34 12.0863 70.2596 11.7644 70.3401 11.6034C70.3401 11.2816 70.5009 10.8794 70.5009 10.5576C70.5814 9.91392 70.7423 9.18977 70.8228 8.54608C70.9033 7.90239 70.8228 8.1437 70.9032 8.06324C70.9837 7.98278 70.9032 7.90208 70.9032 7.82162C70.0986 6.93655 69.1331 6.13218 68.248 5.24711C68.1676 5.08619 68.0871 5.00573 68.0871 4.84481C68.0871 4.68388 68.0871 4.68365 68.248 4.60319C68.409 4.60319 68.5699 4.6035 68.7308 4.52304C69.7768 4.36212 70.8228 4.20112 71.8688 4.0402C72.9148 3.87928 72.1102 4.0402 72.1906 4.0402C72.1906 4.0402 72.1906 4.04012 72.1906 3.95966C72.3516 3.63781 72.5125 3.31581 72.6734 2.99397C72.9952 2.35028 73.3171 1.70668 73.6389 1.06299C73.9608 0.419303 73.8803 0.580461 74.0412 0.5C74.2826 0.5 74.4435 0.660843 74.524 0.821765C74.6044 0.982686 74.6849 1.14369 74.7654 1.30461L74.9263 1.22407Z" fill="var(--fill-0, #215388)"/>
<path id="Vector_2" d="M58.0295 1.22407C58.3513 1.86776 58.6732 2.5919 58.995 3.23559C59.3169 3.87928 59.2364 3.71828 59.3973 3.95966C59.5583 3.95966 59.7996 3.95974 60.041 4.0402C60.9261 4.20112 61.8112 4.28158 62.6963 4.4425C63.5813 4.60342 63.2595 4.44227 63.4204 4.60319C63.5813 4.76411 63.5009 4.76434 63.5813 4.84481C63.6618 4.92527 63.5009 5.08611 63.4204 5.16657C63.0985 5.56887 62.6158 5.89064 62.2135 6.29294C61.7307 6.69525 61.3284 7.17817 60.8456 7.66093C60.3629 8.1437 60.6848 7.82162 60.6848 7.82162C60.6848 7.82162 60.6848 7.8217 60.6848 7.90216C60.6848 7.90216 60.6848 8.06332 60.6848 8.14378C60.8457 9.10931 61.087 10.0745 61.1675 11.0401C61.248 12.0056 61.3284 11.6838 61.1675 11.9252C61.0066 12.1666 61.087 12.0863 61.0066 12.0863C60.9261 12.0863 60.8457 12.0863 60.6848 12.0863C60.5238 12.0863 60.2019 11.845 60.041 11.7645C59.4778 11.4427 58.8342 11.1207 58.2709 10.7988C57.7077 10.477 57.6272 10.4769 57.3054 10.316C57.064 10.4769 56.8226 10.5574 56.5812 10.7183C55.6962 11.2011 54.8915 11.6035 54.0065 12.0863C53.1214 12.569 53.7651 12.1667 53.6042 12.0863C53.4432 12.0863 53.3628 11.7644 53.4433 11.6034C53.4433 11.2816 53.6042 10.8794 53.6042 10.5576C53.6846 9.91392 53.8456 9.18977 53.926 8.54608C54.0065 7.90239 53.926 8.1437 54.0065 8.06324C54.0869 7.98278 54.0065 7.90208 54.0065 7.82162C53.2019 6.93655 52.2363 6.13218 51.3513 5.24711C51.2708 5.08619 51.1903 5.00573 51.1903 4.84481C51.1903 4.68388 51.1903 4.68365 51.3513 4.60319C51.5122 4.60319 51.6731 4.6035 51.8341 4.52304C52.8801 4.36212 53.926 4.20112 54.972 4.0402C56.018 3.87928 55.2134 4.0402 55.2939 4.0402C55.2939 4.0402 55.2939 4.04012 55.2939 3.95966C55.4548 3.63781 55.6157 3.31581 55.7766 2.99397C56.0985 2.35028 56.4203 1.70668 56.7422 1.06299C57.064 0.419303 56.9835 0.580461 57.1445 0.5C57.3858 0.5 57.5467 0.660843 57.6272 0.821765C57.7077 0.982686 57.7882 1.14369 57.8686 1.30461L58.0295 1.22407Z" fill="var(--fill-0, #215388)"/>
<path id="Vector_3" d="M41.1327 1.22407C41.4546 1.86776 41.7764 2.5919 42.0983 3.23559C42.4201 3.87928 42.3397 3.71828 42.5006 3.95966C42.6615 3.95966 42.9029 3.95974 43.1443 4.0402C44.0293 4.20112 44.9144 4.28158 45.7995 4.4425C46.6846 4.60342 46.3627 4.44227 46.5236 4.60319C46.6845 4.76411 46.6041 4.76434 46.6846 4.84481C46.765 4.92527 46.6041 5.08611 46.5236 5.16657C46.2018 5.56887 45.719 5.89064 45.3167 6.29294C44.8339 6.69525 44.4316 7.17817 43.9489 7.66093C43.4661 8.1437 43.788 7.82162 43.788 7.82162C43.788 7.82162 43.788 7.8217 43.788 7.90216C43.788 7.90216 43.788 8.06332 43.788 8.14378C43.9489 9.10931 44.1903 10.0745 44.2707 11.0401C44.3512 12.0056 44.4316 11.6838 44.2707 11.9252C44.1098 12.1666 44.1903 12.0863 44.1098 12.0863C44.0293 12.0863 43.9489 12.0863 43.788 12.0863C43.6271 12.0863 43.3052 11.845 43.1443 11.7645C42.581 11.4427 41.9374 11.1207 41.3742 10.7988C40.8109 10.477 40.7305 10.4769 40.4086 10.316C40.1672 10.4769 39.9258 10.5574 39.6844 10.7183C38.7994 11.2011 37.9948 11.6035 37.1097 12.0863C36.2246 12.569 36.8683 12.1667 36.7074 12.0863C36.5465 12.0863 36.466 11.7644 36.5465 11.6034C36.5465 11.2816 36.7074 10.8794 36.7074 10.5576C36.7879 9.91392 36.9488 9.18977 37.0293 8.54608C37.1097 7.90239 37.0292 8.1437 37.1097 8.06324C37.1902 7.98278 37.1097 7.90208 37.1097 7.82162C36.3051 6.93655 35.3396 6.13218 34.4545 5.24711C34.374 5.08619 34.2936 5.00573 34.2936 4.84481C34.2936 4.68388 34.2936 4.68365 34.4545 4.60319C34.6154 4.60319 34.7764 4.6035 34.9373 4.52304C35.9833 4.36212 37.0292 4.20112 38.0752 4.0402C39.1212 3.87928 38.3166 4.0402 38.3971 4.0402C38.3971 4.0402 38.3971 4.04012 38.3971 3.95966C38.558 3.63781 38.7189 3.31581 38.8798 2.99397C39.2017 2.35028 39.5235 1.70668 39.8454 1.06299C40.1672 0.419303 40.0868 0.580461 40.2477 0.5C40.4891 0.5 40.65 0.660843 40.7304 0.821765C40.8109 0.982686 40.8914 1.14369 40.9719 1.30461L41.1327 1.22407Z" fill="var(--fill-0, #215388)"/>
<path id="Vector_4" d="M24.236 1.22407C24.5578 1.86776 24.8797 2.5919 25.2015 3.23559C25.5233 3.87928 25.4429 3.71828 25.6038 3.95966C25.7647 3.95966 26.0061 3.95974 26.2475 4.0402C27.1326 4.20112 28.0177 4.28158 28.9027 4.4425C29.7878 4.60342 29.4659 4.44227 29.6268 4.60319C29.7878 4.76411 29.7073 4.76434 29.7878 4.84481C29.8682 4.92527 29.7073 5.08611 29.6268 5.16657C29.305 5.56887 28.8222 5.89064 28.4199 6.29294C27.9372 6.69525 27.5349 7.17817 27.0521 7.66093C26.5693 8.1437 26.8912 7.82162 26.8912 7.82162C26.8912 7.82162 26.8912 7.8217 26.8912 7.90216C26.8912 7.90216 26.8912 8.06332 26.8912 8.14378C27.0521 9.10931 27.2935 10.0745 27.374 11.0401C27.4544 12.0056 27.5349 11.6838 27.374 11.9252C27.213 12.1666 27.2935 12.0863 27.213 12.0863C27.1326 12.0863 27.0521 12.0863 26.8912 12.0863C26.7303 12.0863 26.4084 11.845 26.2475 11.7645C25.6843 11.4427 25.0406 11.1207 24.4774 10.7988C23.9142 10.477 23.8337 10.4769 23.5118 10.316C23.2705 10.4769 23.0291 10.5574 22.7877 10.7183C21.9026 11.2011 21.098 11.6035 20.2129 12.0863C19.3279 12.569 19.9715 12.1667 19.8106 12.0863C19.6497 12.0863 19.5693 11.7644 19.6497 11.6034C19.6497 11.2816 19.8106 10.8794 19.8106 10.5576C19.8911 9.91392 20.052 9.18977 20.1325 8.54608C20.2129 7.90239 20.1325 8.1437 20.2129 8.06324C20.2934 7.98278 20.2129 7.90208 20.2129 7.82162C19.4083 6.93655 18.4428 6.13218 17.5577 5.24711C17.4773 5.08619 17.3968 5.00573 17.3968 4.84481C17.3968 4.68388 17.3968 4.68365 17.5577 4.60319C17.7186 4.60319 17.8796 4.6035 18.0405 4.52304C19.0865 4.36212 20.1325 4.20112 21.1785 4.0402C22.2245 3.87928 21.4199 4.0402 21.5003 4.0402C21.5003 4.0402 21.5003 4.04012 21.5003 3.95966C21.6612 3.63781 21.8221 3.31581 21.9831 2.99397C22.3049 2.35028 22.6268 1.70668 22.9486 1.06299C23.2705 0.419303 23.19 0.580461 23.3509 0.5C23.5923 0.5 23.7532 0.660843 23.8337 0.821765C23.9141 0.982686 23.9946 1.14369 24.0751 1.30461L24.236 1.22407Z" fill="var(--fill-0, #215388)"/>
<path id="Vector_5" d="M7.33919 1.22407C7.66103 1.86776 7.98289 2.5919 8.30473 3.23559C8.62657 3.87928 8.54611 3.71828 8.70703 3.95966C8.86796 3.95966 9.10933 3.95974 9.35071 4.0402C10.2358 4.20112 11.1209 4.28158 12.006 4.4425C12.891 4.60342 12.5692 4.44227 12.7301 4.60319C12.891 4.76411 12.8105 4.76434 12.891 4.84481C12.9715 4.92527 12.8105 5.08611 12.7301 5.16657C12.4082 5.56887 11.9255 5.89064 11.5232 6.29294C11.0404 6.69525 10.6381 7.17817 10.1553 7.66093C9.67255 8.1437 9.99444 7.82162 9.99444 7.82162C9.99444 7.82162 9.99444 7.8217 9.99444 7.90216C9.99444 7.90216 9.99444 8.06332 9.99444 8.14378C10.1554 9.10931 10.3967 10.0745 10.4772 11.0401C10.5576 12.0056 10.6381 11.6838 10.4772 11.9252C10.3163 12.1666 10.3967 12.0863 10.3162 12.0863C10.2358 12.0863 10.1554 12.0863 9.99444 12.0863C9.83351 12.0863 9.51163 11.845 9.35071 11.7645C8.78748 11.4427 8.14384 11.1207 7.58061 10.7988C7.01739 10.477 6.93692 10.4769 6.61507 10.316C6.37369 10.4769 6.13229 10.5574 5.89091 10.7183C5.00584 11.2011 4.20122 11.6035 3.31615 12.0863C2.43108 12.569 3.07477 12.1667 2.91385 12.0863C2.75292 12.0863 2.6725 11.7644 2.75296 11.6034C2.75296 11.2816 2.91385 10.8794 2.91385 10.5576C2.99431 9.91392 3.15525 9.18977 3.23571 8.54608C3.31617 7.90239 3.23569 8.1437 3.31615 8.06324C3.39661 7.98278 3.31615 7.90208 3.31615 7.82162C2.51154 6.93655 1.54602 6.13218 0.660952 5.24711C0.580491 5.08619 0.500021 5.00573 0.500021 4.84481C0.500021 4.68388 0.50003 4.68365 0.660952 4.60319C0.821874 4.60319 0.982825 4.6035 1.14375 4.52304C2.18974 4.36212 3.2357 4.20112 4.28169 4.0402C5.32768 3.87928 4.52309 4.0402 4.60355 4.0402C4.60355 4.0402 4.60355 4.04012 4.60355 3.95966C4.76447 3.63781 4.92538 3.31581 5.0863 2.99397C5.40814 2.35028 5.72999 1.70668 6.05184 1.06299C6.37368 0.419303 6.29322 0.580461 6.45414 0.5C6.69552 0.5 6.85643 0.660843 6.93689 0.821765C7.01735 0.982686 7.09785 1.14369 7.17831 1.30461L7.33919 1.22407Z" stroke="var(--stroke-0, #215388)" stroke-miterlimit="10"/>
</g>
</svg>
