<svg preserveAspectRatio="none" width="100%" height="100%" overflow="visible" style="display: block;" viewBox="0 0 167 35.5007" fill="none" xmlns="http://www.w3.org/2000/svg">
<g id="Group 39825">
<path id="Vector" d="M32.7156 6.76729C26.03 6.76729 21.8469 11.4143 21.8469 17.8849C21.8469 24.3555 26.4318 29.1044 32.7156 29.1044C38.9994 29.1044 41.5932 26.4754 42.9906 22.2264H39.3008C38.1043 24.5499 35.6109 25.7996 32.7156 25.7626C29.4733 25.7256 25.829 23.0318 25.3358 19.0883H43.6939C44.0958 11.6087 39.4012 6.75804 32.7247 6.75804L32.7156 6.76729ZM25.5368 16.1724C26.2309 12.4326 29.0257 10.1091 32.8161 10.1091C36.6064 10.1091 39.5017 12.6362 40.1958 16.1724H25.5368Z" fill="var(--fill-0, #215388)"/>
<path id="Vector_2" d="M155.998 6.76729C149.312 6.76729 145.129 11.4143 145.129 17.8849C145.129 24.3555 149.714 29.1044 155.998 29.1044C162.281 29.1044 164.875 26.4754 166.273 22.2264H162.583C161.386 24.5499 158.893 25.7996 155.998 25.7626C152.755 25.7256 149.111 23.0318 148.618 19.0883H166.976C167.378 11.6087 162.683 6.75804 156.007 6.75804L155.998 6.76729ZM148.819 16.1724C149.513 12.4326 152.308 10.1091 156.098 10.1091C159.889 10.1091 162.784 12.6362 163.478 16.1724H148.819Z" fill="var(--fill-0, #215388)"/>
<path id="Vector_3" d="M50.3704 0.195207H46.982V28.7067H50.3704V0.195207Z" fill="var(--fill-0, #215388)"/>
<g id="Group">
<path id="Vector_4" d="M89.3805 35.4823C89.362 35.4823 89.3528 35.4823 89.3342 35.4823C89.3157 35.4823 89.2972 35.4823 89.2787 35.4823H89.3805Z" fill="var(--fill-0, #215388)"/>
<path id="Vector_5" d="M96.4573 7.17436V10.3125C94.5576 8.19263 91.7719 6.87814 88.5752 6.87814C82.4924 6.87814 78.0992 11.4233 78.0992 17.3941C78.0992 23.3648 82.5837 27.7711 88.5752 27.8082C94.0644 27.8452 95.4344 25.8457 96.4573 24.3738V25.6883C96.4573 30.0391 93.3611 32.3904 88.9771 32.3626C84.8488 32.3348 83.5427 31.0296 82.5928 28.8264H79.1039C79.999 33.3623 84.3647 35.4822 89.3333 35.5007C95.2882 35.4729 99.8458 31.8442 99.8458 25.6976V7.19287H96.4573V7.17436ZM89.0775 24.559C84.6844 24.559 81.5973 21.4208 81.5973 17.283C81.5973 13.1451 84.6935 10.007 89.0775 10.007C93.4616 10.007 96.5578 12.9415 96.5578 17.283C96.5578 21.6245 93.4616 24.559 89.0775 24.559Z" fill="var(--fill-0, #215388)"/>
</g>
<path id="Vector_6" d="M122.195 7.17449V10.2108C120.296 8.09093 117.51 6.77644 114.213 6.77644C107.929 6.77644 103.536 11.4234 103.536 17.8941C103.536 24.3647 107.929 29.1135 114.213 29.1135C120.497 29.1135 120.296 27.799 122.195 25.6792V28.7155H125.584V7.18375H122.195V7.17449ZM114.615 25.8736C110.222 25.8736 107.034 22.6429 107.034 17.9866C107.034 13.3304 110.222 10.0997 114.615 10.0997C119.008 10.0997 122.195 13.3304 122.195 17.9866C122.195 22.6429 119.008 25.8736 114.615 25.8736Z" fill="var(--fill-0, #215388)"/>
<path id="Vector_7" d="M140.353 28.9097C141.047 28.9097 141.951 28.9097 142.846 28.8079V25.5772C142.152 25.5772 141.449 25.679 140.754 25.679C137.759 25.679 136.663 24.4664 136.663 21.6337V10.1088H142.545V7.17435H136.663V0.29642H133.274V7.17435H128.79V10.1088H133.274V22.0411C133.274 26.7899 135.567 28.919 140.353 28.919V28.9097Z" fill="var(--fill-0, #215388)"/>
<path id="Vector_8" d="M15.7642 28.6041H20.0569L10.8778 17.4865C16.4675 17.181 19.3536 13.1357 19.3536 8.896C19.3536 4.6563 16.2574 4.61787e-05 10.0741 4.61787e-05H0V28.7152H3.68988V17.5976H6.55776L15.7551 28.6134L15.7642 28.6041ZM3.68988 3.62878H9.97364C13.3621 3.62878 15.6637 5.74863 15.6637 9.09039C15.6637 12.4322 13.4717 14.4502 10.0741 14.4502H5.28822H3.68988V3.62878Z" fill="var(--fill-0, #215388)"/>
<path id="Vector_9" d="M71.9253 10.035C69.8612 7.94287 67.112 6.7765 64.1802 6.76724H64.0706C61.1297 6.78575 58.3622 7.96139 56.289 10.0812C54.2157 12.2011 53.0832 15.0152 53.1014 17.9959C53.1288 24.1333 58.07 29.1136 64.1254 29.1136C70.1808 29.1136 64.1619 29.1136 64.1802 29.1136C67.1211 29.0951 69.8886 27.9194 71.9618 25.7996C74.0351 23.6797 75.1676 20.8656 75.1494 17.8849C75.1311 14.9226 73.9894 12.1363 71.9253 10.0442V10.035ZM70.2722 17.2924C70.2174 16.052 69.9982 14.8208 69.6146 13.6267C70.4822 13.2656 71.3134 12.8213 72.1171 12.2844C73.1126 13.7192 73.7428 15.4318 73.8616 17.2832H70.2813L70.2722 17.2924ZM73.8524 18.5884C73.7337 20.4028 73.14 22.1246 72.1171 23.5964C71.3225 23.0688 70.4914 22.6152 69.6328 22.2634C70.0073 21.0693 70.2174 19.8381 70.2722 18.5884H73.8524ZM71.3042 11.2754C70.6192 11.729 69.8977 12.1085 69.1579 12.414C68.6282 11.1643 67.9066 9.96089 66.9933 8.86857C66.8563 8.70195 66.7101 8.53532 66.564 8.37795C68.409 8.86857 70.0438 9.88684 71.2951 11.2754H71.3042ZM64.7739 13.4045V8.39647C65.2214 8.80377 65.6415 9.23885 66.0251 9.7017C66.838 10.6737 67.4774 11.7382 67.9614 12.8491C66.9202 13.1638 65.8516 13.3489 64.7739 13.4045ZM68.409 14.0617C68.7378 15.117 68.9387 16.2001 68.9935 17.2832H64.7739V14.7005C65.9977 14.6449 67.2216 14.432 68.409 14.0617ZM63.4952 8.40572V13.4137C62.4175 13.3582 61.3489 13.1731 60.3076 12.8583C61.0292 11.1736 62.1069 9.66467 63.4952 8.41498V8.40572ZM63.4952 14.7005V17.2832H59.2756C59.2756 17.1536 59.2938 17.0332 59.303 16.9036C59.3852 15.9224 59.577 14.9689 59.8601 14.0525C61.0475 14.4228 62.2713 14.6357 63.5043 14.6912L63.4952 14.7005ZM63.4952 18.5884V21.1711C62.2531 21.2266 61.0201 21.4395 59.8236 21.8191C59.5039 20.773 59.3121 19.69 59.2664 18.5791H63.4952V18.5884ZM63.4952 22.4671V27.5769C63.0477 27.1696 62.6275 26.7345 62.2439 26.2717C61.4219 25.2812 60.7552 24.1889 60.2711 23.0317C61.3215 22.7077 62.4083 22.5134 63.5043 22.4578L63.4952 22.4671ZM64.7739 27.5862V22.4763C65.8607 22.5319 66.9476 22.717 67.998 23.041C67.2855 24.735 66.2078 26.2902 64.7739 27.5862ZM64.7739 21.1711V18.5884H68.9935C68.9387 19.6807 68.756 20.773 68.4364 21.8191C67.2399 21.4395 66.0069 21.2266 64.7739 21.1711ZM61.6959 8.3687C60.5999 9.56284 59.7231 10.9236 59.0929 12.4047C58.3531 12.0993 57.6316 11.7105 56.9466 11.2569C57.0288 11.1643 57.1201 11.0717 57.2023 10.9792C58.4627 9.69244 60.0062 8.79452 61.6868 8.35944L61.6959 8.3687ZM58.0243 16.8018C58.0152 16.9592 57.9969 17.1258 57.9878 17.2832H54.4075C54.5262 15.4688 55.1199 13.747 56.1428 12.2751C56.9466 12.812 57.7777 13.2564 58.6454 13.6174C58.3257 14.6357 58.1065 15.7002 58.0152 16.7925L58.0243 16.8018ZM58.618 22.2634C57.7686 22.6152 56.9374 23.0595 56.152 23.5872C55.1564 22.1523 54.5354 20.4398 54.4166 18.5791H57.9878C58.0334 19.8381 58.2526 21.0693 58.618 22.2542V22.2634ZM56.9557 24.6054C57.6316 24.1611 58.3348 23.7816 59.0655 23.4761C59.6044 24.7813 60.3442 26.0032 61.2758 27.1141C61.3763 27.2344 61.4767 27.3455 61.5772 27.4658C59.7779 26.966 58.1887 25.9569 56.9648 24.6054H56.9557ZM66.6919 27.4658C67.7605 26.2624 68.6008 24.9109 69.1944 23.4761C69.9251 23.7816 70.6375 24.1611 71.3134 24.6054C71.2312 24.698 71.1398 24.7906 71.0576 24.8831C69.8338 26.1421 68.3359 27.0215 66.6919 27.4658Z" fill="var(--fill-0, #239083)"/>
</g>
</svg>
