<svg preserveAspectRatio="none" width="100%" height="100%" overflow="visible" style="display: block;" viewBox="0 0 1199.97 250.2" fill="none" xmlns="http://www.w3.org/2000/svg">
<g id="Group">
<path id="Vector" d="M234.6 204.8C269.8 204.8 298.1 186.3 308.8 156.3H282.2C273.8 172.5 255.9 181.7 234.5 181.7C213.1 181.7 184.8 162.3 181.7 134H313.4C316.3 80.9 282.5 46.5 234.6 46.5C186.7 46.5 156 79.4 156 125.6C156 171.8 188.9 204.7 234.6 204.7M182.3 113C187.2 86.7 207.4 69.7 234.6 69.7C261.8 69.7 282.5 87.9 287.7 113H182.3ZM336.7 202.2H361.2V0H336.7V202.2ZM641 250.2C684.3 250.2 717.2 224.5 717.2 180.6V49.2H692.7V71.1C678.8 55.8 658.9 46.6 636.1 46.6C592.5 46.6 560.4 78.9 560.4 121.1C560.4 163.3 592.5 195 636.1 195C679.7 195 678.8 185.5 692.7 170.4V179.9C692.7 211.1 670.2 227.6 638.7 227.6C607.2 227.6 598 219.8 592.5 202.5H567.1C573.7 234.6 605.2 250.2 641 250.2ZM585.6 121.1C585.6 91.4 607.5 69.4 639.3 69.4C671.1 69.4 693.3 90.2 693.3 121.1C693.3 152 671.1 172.8 639.3 172.8C607.5 172.8 585.6 150.6 585.6 121.1ZM820.6 204.8C844.3 204.8 864.2 195.6 877.8 180.5V202.2H902.3V49.1H877.8V70.8C864.2 55.8 844.3 46.5 820.6 46.5C775.6 46.5 743.8 79.7 743.8 125.6C743.8 171.5 775.6 204.7 820.6 204.7M768.9 125.7C768.9 92.8 791.7 69.7 823.5 69.7C855.3 69.7 878.4 92.8 878.4 125.7C878.4 158.6 855.3 181.7 823.5 181.7C791.7 181.7 768.9 158.6 768.9 125.7ZM1008.6 203.1C1013.8 203.1 1020.1 202.8 1026.2 202.2V179.4C1021 180 1015.8 180.3 1011.5 180.3C990.1 180.3 982 171.6 982 151.4V69.7H1024.2V49.2H982V0.100006H957.5V49.2H925.4V69.7H957.5V154.3C957.5 187.8 973.7 203.1 1008.6 203.1ZM1121 204.8C1156.2 204.8 1184.5 186.3 1195.2 156.3H1168.6C1160.2 172.5 1142.3 181.7 1121 181.7C1099.7 181.7 1071.3 162.3 1068.1 134H1199.8C1202.7 80.9 1168.9 46.5 1121 46.5C1073.1 46.5 1042.4 79.4 1042.4 125.6C1042.4 171.8 1075.3 204.7 1121 204.7M1068.7 113C1073.6 86.7 1093.8 69.7 1121 69.7C1148.2 69.7 1168.9 87.9 1174.1 113H1068.7Z" fill="var(--fill-0, #215388)"/>
<path id="Vector_2" d="M78.3 123.7C118.7 121.4 138.9 93.1 138.9 63C138.9 32.9 116.4 0 72.2 0H0V202.2H26V123.5H47L113.5 202.2H144.4V199.6L78.3 123.6V123.7ZM26 24.6H71.3C95.8 24.6 112.3 39.9 112.3 63.3C112.3 86.7 96.4 101.4 72.4 101.4H38H25.9V24.6H26Z" fill="var(--fill-0, #215388)"/>
</g>
</svg>
